<?xml version="1.0" standalone="no"?>
<svg xmlns:xlink="http://www.w3.org/1999/xlink" id="wave" style="transform:rotate(0deg); transition: 0.3s" viewBox="0 0 1440 100" version="1.1" xmlns="http://www.w3.org/2000/svg"><defs><linearGradient id="sw-gradient-0" x1="0" x2="0" y1="1" y2="0"><stop stop-color="rgba(255, 255, 255, 1)" offset="0%"/><stop stop-color="rgba(241.695, 241.695, 241.695, 1)" offset="100%"/></linearGradient></defs><path style="transform:translate(0, 0px); opacity:1" fill="url(#sw-gradient-0)" d="M0,40L12.6,45C25.3,50,51,60,76,55C101.1,50,126,30,152,25C176.8,20,202,30,227,31.7C252.6,33,278,27,303,21.7C328.4,17,354,13,379,15C404.2,17,429,23,455,30C480,37,505,43,531,51.7C555.8,60,581,70,606,76.7C631.6,83,657,87,682,75C707.4,63,733,37,758,31.7C783.2,27,808,43,834,41.7C858.9,40,884,20,909,20C934.7,20,960,40,985,48.3C1010.5,57,1036,53,1061,58.3C1086.3,63,1112,77,1137,83.3C1162.1,90,1187,90,1213,76.7C1237.9,63,1263,37,1288,33.3C1313.7,30,1339,50,1364,58.3C1389.5,67,1415,63,1440,53.3C1465.3,43,1491,27,1516,23.3C1541.1,20,1566,30,1592,31.7C1616.8,33,1642,27,1667,25C1692.6,23,1718,27,1743,26.7C1768.4,27,1794,23,1806,21.7L1818.9,20L1818.9,100L1806.3,100C1793.7,100,1768,100,1743,100C1717.9,100,1693,100,1667,100C1642.1,100,1617,100,1592,100C1566.3,100,1541,100,1516,100C1490.5,100,1465,100,1440,100C1414.7,100,1389,100,1364,100C1338.9,100,1314,100,1288,100C1263.2,100,1238,100,1213,100C1187.4,100,1162,100,1137,100C1111.6,100,1086,100,1061,100C1035.8,100,1011,100,985,100C960,100,935,100,909,100C884.2,100,859,100,834,100C808.4,100,783,100,758,100C732.6,100,707,100,682,100C656.8,100,632,100,606,100C581.1,100,556,100,531,100C505.3,100,480,100,455,100C429.5,100,404,100,379,100C353.7,100,328,100,303,100C277.9,100,253,100,227,100C202.1,100,177,100,152,100C126.3,100,101,100,76,100C50.5,100,25,100,13,100L0,100Z"/></svg>